<?xml version="1.0" encoding="UTF-8"?>
<!DOCTYPE svg PUBLIC "-//W3C//DTD SVG 1.1//EN" "http://www.w3.org/Graphics/SVG/1.1/DTD/svg11.dtd">
<!-- Creator: CorelDRAW 2020 (64-Bit) -->
<svg xmlns="http://www.w3.org/2000/svg" xml:space="preserve" width="23.7066mm" height="18.6266mm" version="1.1" style="shape-rendering:geometricPrecision; text-rendering:geometricPrecision; image-rendering:optimizeQuality; fill-rule:evenodd; clip-rule:evenodd"
viewBox="0 0 2370.66 1862.66"
 xmlns:xlink="http://www.w3.org/1999/xlink"
 xmlns:xodm="http://www.corel.com/coreldraw/odm/2003">
 <defs>
  <style type="text/css">
   <![CDATA[
    .fil0 {fill:url(#id0);fill-rule:nonzero}
   ]]>
  </style>
  <linearGradient id="id0" gradientUnits="userSpaceOnUse" x1="-235.32" y1="-441.62" x2="2311.4" y2="-441.62">
   <stop offset="0" style="stop-opacity:1; stop-color:#F3F3F3"/>
   <stop offset="0.6" style="stop-opacity:1; stop-color:#F3F3F3"/>
   <stop offset="1" style="stop-opacity:1; stop-color:#F3F3F3"/>
  </linearGradient>
 </defs>
 <g id="Layer_x0020_1">
  <metadata id="CorelCorpID_0Corel-Layer"/>
  <g id="skeleton.svg">
   <path class="fil0" d="M63.93 1493.88l1674.46 0c14.06,0 25.47,11.4 25.47,25.47l0 6.37c0,14.06 -11.41,25.46 -25.47,25.46l-1674.47 0c-14.06,0 -25.46,-11.4 -25.46,-25.47l0 -6.36c0,-14.07 11.4,-25.47 25.47,-25.47zm2247.47 -63.67l0 -1381.59 -2215.64 0c-35.15,0 -63.67,28.51 -63.67,63.67l0 1254.25c0,35.16 28.52,63.67 63.67,63.67l2215.64 0zm-2247.48 184.64l719.45 0c10.55,0 19.11,8.55 19.11,19.1l-0.01 0c0.01,10.55 -8.55,19.1 -19.09,19.1l-719.46 0c-10.54,0 -19.1,-8.55 -19.1,-19.1 0,-10.55 8.56,-19.1 19.11,-19.1l-0.01 0zm-19.1 19.1l0 0 0 0z"/>
  </g>
 </g>
</svg>
